<?xml version="1.0" encoding="UTF-8" standalone="no"?><!-- Generator: Gravit.io --><svg xmlns="http://www.w3.org/2000/svg" xmlns:xlink="http://www.w3.org/1999/xlink" style="isolation:isolate" viewBox="307.967 342.742 870.067 99.515" width="870.067pt" height="99.515pt"><defs><clipPath id="_clipPath_TPbYqq8jhMgU6QowZaXJy77rmPYVokQg"><rect x="307.967" y="342.742" width="870.067" height="99.515"/></clipPath></defs><g clip-path="url(#_clipPath_TPbYqq8jhMgU6QowZaXJy77rmPYVokQg)"><clipPath id="_clipPath_kt2xWxw7X3fqRYeVyE3Dk3V5xzMwoOeN"><path d=" M 307.967 342.742 L 307.967 442.258 L 1178.033 442.258 L 1178.033 342.742 L 307.967 342.742 Z " fill="rgb(255,255,255)"/></clipPath><g clip-path="url(#_clipPath_kt2xWxw7X3fqRYeVyE3Dk3V5xzMwoOeN)"><path d=" M 478.579 359.392 L 478.579 348.115 L 465.335 348.115 C 459.432 348.115 456.942 350.609 456.942 356.504 L 456.942 388.892 L 409.87 388.892 L 409.87 356.504 C 409.87 350.609 407.383 348.115 401.479 348.115 L 389.897 348.115 L 388.235 348.115 L 315.835 348.115 C 309.934 348.115 307.967 350.083 307.967 355.983 L 307.967 368.176 L 319.636 368.176 L 319.636 362.279 C 319.636 360.311 320.685 359.392 322.522 359.392 L 341.141 359.392 L 341.141 440.682 L 354.25 440.682 L 354.25 359.392 L 388.235 359.392 L 389.897 359.392 L 393.876 359.392 C 395.713 359.392 396.762 360.311 396.762 362.279 L 396.762 440.682 L 409.87 440.682 L 409.87 400.04 L 456.942 400.04 L 456.942 440.682 L 470.054 440.682 L 470.054 362.279 C 470.054 360.311 471.104 359.392 472.938 359.392 L 478.579 359.392 Z  M 531.095 442.258 C 504.35 442.258 483.634 421.016 483.634 393.746 C 483.634 367.125 504.35 346.544 531.095 346.544 C 557.847 346.544 578.695 367.125 578.695 393.746 C 578.695 421.016 557.847 442.258 531.095 442.258 Z  M 531.095 358.734 C 512.345 358.734 497.269 373.946 497.269 393.746 C 497.269 414.201 512.345 429.931 531.095 429.931 C 549.846 429.931 565.058 414.201 565.058 393.746 C 565.058 373.946 549.846 358.734 531.095 358.734 Z  M 655.863 440.682 L 655.863 429.408 L 654.158 429.408 C 651.01 429.408 648.911 429.149 647.601 426.394 L 636.454 404.236 C 634.884 401.219 632.52 400.04 632.52 400.04 L 632.52 399.773 C 639.079 398.331 649.172 390.729 649.172 375.255 C 649.172 358.343 637.765 348.115 621.508 348.115 L 581.123 348.115 L 581.123 359.392 L 589.649 359.392 L 589.649 440.682 L 602.757 440.682 L 602.757 403.837 L 614.823 403.837 C 619.932 403.837 621.638 404.496 623.998 408.829 L 636.585 433.731 C 639.599 439.763 642.226 440.682 649.439 440.682 L 655.863 440.682 Z  M 619.803 392.567 L 602.757 392.567 L 602.757 359.392 L 620.069 359.392 C 629.77 359.392 635.666 365.425 635.666 375.785 C 635.666 386.137 629.77 392.567 619.803 392.567 Z  M 706.94 442.258 C 680.19 442.258 659.476 421.016 659.476 393.746 C 659.476 367.125 680.19 346.544 706.94 346.544 C 733.684 346.544 754.532 367.125 754.532 393.746 C 754.532 421.016 733.684 442.258 706.94 442.258 Z  M 706.94 358.734 C 688.189 358.734 673.113 373.946 673.113 393.746 C 673.113 414.201 688.189 429.931 706.94 429.931 C 725.69 429.931 740.896 414.201 740.896 393.746 C 740.896 373.946 725.69 358.734 706.94 358.734 Z  M 764.438 394.006 C 764.438 422.854 784.897 442.258 809.55 442.258 C 828.033 442.258 838.387 430.987 838.387 430.987 L 838.658 430.987 C 838.658 430.987 838.523 432.945 838.523 434.91 L 838.523 440.682 L 850.059 440.682 L 850.059 403.317 C 850.059 397.415 847.571 394.924 841.666 394.924 L 829.472 394.924 L 829.472 406.201 L 835.108 406.201 C 836.946 406.201 838.001 407.25 838.001 409.089 L 838.001 418.401 C 838.001 418.401 828.167 429.931 811.647 429.931 C 792.891 429.931 778.08 415.507 778.08 394.006 C 778.08 373.42 792.891 358.604 811.383 358.604 C 826.718 358.604 836.685 367.522 836.685 367.522 L 844.159 357.951 C 844.159 357.951 833.275 346.544 811.114 346.544 C 784.635 346.544 764.438 367.392 764.438 394.006 Z  M 906.509 442.258 C 879.757 442.258 859.049 421.016 859.049 393.746 C 859.049 367.125 879.757 346.544 906.509 346.544 C 933.26 346.544 954.103 367.125 954.103 393.746 C 954.103 421.016 933.26 442.258 906.509 442.258 Z  M 906.509 358.734 C 887.765 358.734 872.682 373.946 872.682 393.746 C 872.682 414.201 887.765 429.931 906.509 429.931 C 925.266 429.931 940.474 414.201 940.474 393.746 C 940.474 373.946 925.266 358.734 906.509 358.734 Z  M 1058.946 393.746 C 1058.946 367.125 1038.094 346.544 1011.343 346.544 C 984.605 346.544 963.883 367.125 963.883 393.746 C 963.883 421.016 984.605 442.258 1011.343 442.258 C 1038.094 442.258 1058.946 421.016 1058.946 393.746 Z  M 1045.304 393.746 C 1045.304 414.201 1030.097 429.931 1011.343 429.931 C 992.599 429.931 977.514 414.201 977.514 393.746 C 977.514 373.946 992.599 358.734 1011.343 358.734 C 1030.097 358.734 1045.304 373.946 1045.304 393.746 Z  M 1101.501 440.682 L 1080.907 440.682 C 1075.011 440.682 1072.518 438.198 1072.518 432.289 L 1072.518 359.392 L 1064 359.392 L 1064 348.115 L 1101.501 348.115 C 1129.694 348.115 1148.306 365.027 1148.306 394.269 C 1148.306 423.637 1129.694 440.682 1101.501 440.682 Z  M 1100.584 359.392 L 1085.638 359.392 L 1085.638 426.517 C 1085.638 428.356 1086.679 429.408 1088.516 429.408 L 1100.584 429.408 C 1121.166 429.408 1134.67 417.082 1134.67 394.269 C 1134.67 371.588 1121.033 359.392 1100.584 359.392 Z  M 1178.033 357.177 C 1178.033 349.147 1171.746 342.742 1163.882 342.742 C 1156.091 342.742 1149.836 349.147 1149.836 357.177 C 1149.836 365.204 1156.091 371.608 1163.882 371.608 C 1171.746 371.608 1178.033 365.204 1178.033 357.177 Z  M 1175.152 357.177 C 1175.152 363.781 1170.242 368.919 1163.882 368.919 C 1157.598 368.919 1152.731 363.781 1152.731 357.177 C 1152.731 350.573 1157.598 345.43 1163.882 345.43 C 1170.242 345.43 1175.152 350.573 1175.152 357.177 Z  M 1169.014 364.569 C 1167.913 364.569 1167.401 364.451 1166.883 363.465 L 1164.826 359.55 C 1164.477 358.872 1164.081 358.797 1163.484 358.797 L 1161.861 358.797 L 1161.861 364.569 L 1159.059 364.569 L 1159.059 351.8 L 1157.707 351.8 L 1157.707 349.663 L 1164.792 349.663 C 1167.594 349.663 1169.497 351.442 1169.497 354.206 C 1169.497 356.501 1167.995 357.846 1166.765 358.163 L 1166.765 358.246 C 1166.765 358.246 1167.238 358.363 1167.594 359.032 L 1169.141 362 C 1169.417 362.472 1169.773 362.514 1170.09 362.514 L 1170.52 362.514 L 1170.52 364.569 L 1169.014 364.569 Z  M 1164.233 351.8 L 1161.861 351.8 L 1161.861 356.742 L 1164.233 356.742 C 1165.694 356.742 1166.644 355.791 1166.644 354.206 C 1166.644 352.667 1165.694 351.8 1164.233 351.8 Z " fill="rgb(120,192,79)"/></g></g></svg>